<svg xmlns="http://www.w3.org/2000/svg" width="140" height="50" viewBox="0 0 1255.5 485.5">
  <g id="Group_2" data-name="Group 2" transform="translate(-139 -161)">
    <g id="knife" transform="translate(139 161)">
      <g id="Group_1" data-name="Group 1">
        <path id="Path_1" data-name="Path 1" d="M190.372,29.813a160.518,160.518,0,0,0-64.042,307.72l2.092-40.525c0-32.242-23.83-21.912-23.83-44.465,0-12.641.395-38.98.395-58.755,0-52.7,22.377-103.673,27.874-115.048,5.53-11.363,18.537-23.76,18.677-11.828,0,17.312.738,218.618.738,218.618h-.035l2.463,61.241a159.787,159.787,0,0,0,35.669,4.125,161.51,161.51,0,0,0,19.822-1.349l5.31-102.906a51.535,51.535,0,0,1-31.295-21.68c-8.685-13.014,6.675-128.067,6.675-128.067h10V204.872h9.922V96.894h10.84V204.872h9.889V96.894H242.8V204.872h9.911V96.894h7.668s15.349,115.054,6.669,128.067a51.757,51.757,0,0,1-30.952,21.633,4.252,4.252,0,0,0-.441.163l5.02,95.993a160.5,160.5,0,0,0-50.3-312.937Z"/>
        <path id="Path_2" data-name="Path 2" d="M190.372,0C85.415,0,0,85.4,0,190.36,0,295.3,85.415,380.721,190.372,380.721S380.722,295.3,380.722,190.36C380.721,85.4,295.324,0,190.372,0Zm0,366.523c-97.144,0-176.18-79.03-176.18-176.163S93.228,14.18,190.372,14.18,366.547,93.216,366.547,190.36,287.5,366.523,190.372,366.523Z"/>
      </g>
    </g>
    <text id="GRAB_A_BITE_" data-name="GRAB A BITE
" transform="translate(541.5 404.5)" stroke="#2f2f2f" stroke-width="1" font-size="153" font-family="SegoeUI, Segoe UI"><tspan x="0" y="0">GRAB A BITE</tspan><tspan x="0" y="203"></tspan></text>
  </g>
</svg>
